<svg width="32" height="32" viewBox="0 0 32 32" fill="none" xmlns="http://www.w3.org/2000/svg">
  <!-- Fondo circular azul -->
  <circle cx="16" cy="16" r="16" fill="#4F7DF8"/>
  
  <!-- Hoja principal (verde) -->
  <path d="M16 6C19.5 6 22.5 8.5 22.5 12C22.5 15.5 19.5 18 16 18C14.5 18 13.2 17.4 12.2 16.5C11.8 17.8 12.5 19.2 13.8 20C15.1 20.8 16.7 20.9 18.1 20.2C19.5 19.5 20.5 18.2 20.7 16.7C22.9 15.8 24.5 13.7 24.5 11.3C24.5 7.8 21.5 5 18 5C16.8 5 15.7 5.4 14.8 6.1C15.2 6 15.6 6 16 6Z" fill="#2ECC71"/>
  
  <!-- Hoja secundaria (verde más claro) -->
  <path d="M13 10C15.5 10 17.5 12 17.5 14.5C17.5 17 15.5 19 13 19C11.8 19 10.7 18.4 10 17.5C9.7 18.3 10 19.2 10.8 19.8C11.6 20.4 12.6 20.5 13.5 20C14.4 19.5 15 18.6 15.1 17.6C16.5 17 17.5 15.8 17.5 14.3C17.5 12.1 15.9 10.3 13.8 10C13.5 10 13.2 10 13 10Z" fill="#27AE60"/>
  
  <!-- Pequeño brote/tallo -->
  <path d="M14 18C14 18.5 14.2 19 14.6 19.3C15 19.6 15.5 19.8 16 19.8C16.5 19.8 17 19.6 17.4 19.3C17.8 19 18 18.5 18 18V22C18 23.1 17.1 24 16 24C14.9 24 14 23.1 14 22V18Z" fill="#229954"/>
  
  <!-- Pequeñas gotas de agua (efecto de frescura) -->
  <circle cx="20" cy="10" r="1" fill="#AED6F1" opacity="0.8"/>
  <circle cx="22" cy="14" r="0.8" fill="#AED6F1" opacity="0.6"/>
  <circle cx="10" cy="12" r="0.9" fill="#AED6F1" opacity="0.7"/>
</svg>
