<svg width="32" height="32" viewBox="0 0 32 32" fill="none" xmlns="http://www.w3.org/2000/svg">
  <!-- Hoja simple verde -->
  <path d="M16 4C20.5 4 24 8.5 24 14C24 19.5 20.5 24 16 24C13.5 24 11.5 22.5 10.5 20.5C10 21.5 10.5 22.5 11.5 23C13 23.5 14.5 23 15.5 22C16.5 21 17 19.5 17 18C18.5 17 19.5 15.5 19.5 14C19.5 10.5 17.5 8 15 8C14.5 8 14 8.2 13.5 8.5C14.5 6 15.2 4 16 4Z" fill="#22C55E"/>
  
  <!-- Nervadura central de la hoja -->
  <path d="M16 8L15.5 20" stroke="#16A34A" stroke-width="1" stroke-linecap="round"/>
  
  <!-- Nervaduras laterales -->
  <path d="M16 12L18 14" stroke="#16A34A" stroke-width="0.5" stroke-linecap="round"/>
  <path d="M16 16L18 18" stroke="#16A34A" stroke-width="0.5" stroke-linecap="round"/>
  <path d="M16 14L14 16" stroke="#16A34A" stroke-width="0.5" stroke-linecap="round"/>
</svg>
